<?xml version="1.0" encoding="utf-8"?>
<!-- Generator: Adobe Illustrator 23.0.1, SVG Export Plug-In . SVG Version: 6.00 Build 0)  -->
<svg version="1.1" id="Layer_1" xmlns="http://www.w3.org/2000/svg" xmlns:xlink="http://www.w3.org/1999/xlink" x="0px" y="0px"
	 viewBox="0 0 32 32" style="enable-background:new 0 0 32 32;" xml:space="preserve">
<style type="text/css">
	.st0{fill:#552C85;}
	.st1{fill:#FFFFFF;}
</style>
<rect class="st0" width="32" height="32"/>
<g>
	<path class="st1" d="M22.9,14.8c0.3-0.5,0.6-1,0.9-1.6c1,1,1.8,1.9,2.6,2.7c-0.8,0.8-1.7,1.6-2.7,2.6c-0.3-0.4-0.6-1-0.8-1.5
		c0.1-0.1,0.2-0.2,0.3-0.3c-0.5,0-1.1-0.1-1.6,0c-0.3,0-0.6,0.3-0.7,0.6c-1,2.4-2.6,3.6-4.9,3.6c-2.3,0-3.9-1.2-4.8-3.5
		c-0.3-0.7-1.2-0.9-1.8-0.4c-0.5,0.5-1,1-1.5,1.6c-0.4-0.5-0.7-0.9-1.1-1.3c0.3-0.4,0.8-0.9,1.4-1.5c-0.6-0.4-1.1-0.8-1.8-1.3
		c0.7-0.5,1.1-0.8,1.7-1.3c0.3,0.3,0.7,0.9,1.2,1.3c0.9,0.8,1.7,0.6,2.1-0.5c0.8-1.9,2.2-3,4.2-3.2c2.2-0.2,3.9,0.7,4.9,2.7
		c0.9,1.6,0.8,1.6,2.6,1.4C23.1,15,23,14.9,22.9,14.8z M19.5,16c0-1.9-1.5-3.5-3.4-3.5c-1.9,0-3.5,1.6-3.5,3.5
		c0,1.9,1.6,3.4,3.5,3.4C17.9,19.5,19.5,17.9,19.5,16z"/>
	<path class="st1" d="M12.1,11.1c-0.3,0.3-0.6,0.7-1,1.1c-0.6-0.7-1.2-1.3-1.9-2.1c0.3-0.2,0.7-0.6,1.1-0.9
		C10.8,9.7,11.4,10.3,12.1,11.1z"/>
	<path class="st1" d="M22.9,10.5c-0.5,0.6-1.1,1.2-1.7,1.8c-0.4-0.4-0.7-0.8-1.1-1.2c0.6-0.5,1.2-1.1,1.9-1.8
		C22.2,9.7,22.6,10.1,22.9,10.5z"/>
	<path class="st1" d="M20.1,20.8c0.2-0.2,0.5-0.5,0.9-0.9c0.6,0.7,1.2,1.3,1.8,2c-0.2,0.2-0.6,0.5-1.1,0.9
		C21.3,22.3,20.8,21.6,20.1,20.8z"/>
	<path class="st1" d="M11.1,20.2c0.3,0.3,0.6,0.7,0.9,1.1c-0.6,0.6-1.2,1.2-1.9,1.9c-0.3-0.3-0.6-0.7-0.9-1
		C9.8,21.5,10.4,20.9,11.1,20.2z"/>
	<path class="st1" d="M16.8,9.6c-0.6,0-1,0-1.5,0c0-0.9,0-1.7,0-2.6c0.5,0,0.9,0,1.5,0C16.8,7.8,16.8,8.7,16.8,9.6z"/>
	<path class="st1" d="M16.8,25c-0.5,0-1,0-1.5,0c0-0.9,0-1.7,0-2.6c0.5,0,1,0,1.5,0C16.8,23.3,16.8,24.1,16.8,25z"/>
</g>
</svg>
